<?xml version="1.0" encoding="UTF-8" standalone="no"?>
<!DOCTYPE svg PUBLIC "-//W3C//DTD SVG 1.1//EN" "http://www.w3.org/Graphics/SVG/1.1/DTD/svg11.dtd">
<svg width="100%" height="100%" viewBox="0 0 32 32" version="1.1" xmlns="http://www.w3.org/2000/svg" xmlns:xlink="http://www.w3.org/1999/xlink" xml:space="preserve" xmlns:serif="http://www.serif.com/" style="fill-rule:evenodd;clip-rule:evenodd;stroke-linejoin:round;stroke-miterlimit:2;">
    <g transform="matrix(1,0,0,1,4,4)">
        <path d="M13,9C13,9.552 13.448,10 14,10L19.679,10C19.744,10.002 19.832,10.011 19.832,10.011C20.105,10.052 20.334,10.199 20.487,10.407C20.64,10.615 20.712,10.877 20.671,11.149L19.291,20.147C19.254,20.386 19.135,20.595 18.966,20.747C18.786,20.908 18.551,21.003 18.28,21L8,21L8,11.212L11.608,3.094C11.915,3.192 12.19,3.362 12.414,3.586C12.777,3.949 13,4.447 13,5L13,9ZM15,8L15,5C15,3.896 14.551,2.894 13.828,2.172C13.105,1.45 12.104,1 11,1C10.595,1 10.246,1.241 10.086,1.594L6.086,10.594C6.026,10.728 5.999,10.869 6,11L6,22C6,22.552 6.448,23 7,23L18.28,23C19.047,23.009 19.762,22.719 20.301,22.237C20.806,21.785 21.158,21.161 21.268,20.454L22.648,11.452C22.773,10.632 22.552,9.838 22.098,9.221C21.644,8.604 20.951,8.158 20.133,8.034C19.968,8.009 19.8,7.997 19.641,8L15,8ZM7,21L4,21C3.724,21 3.475,20.889 3.293,20.707C3.111,20.525 3,20.276 3,20L3,13C3,12.724 3.111,12.475 3.293,12.293C3.475,12.111 3.724,12 4,12L7,12C7.552,12 8,11.552 8,11C8,10.448 7.552,10 7,10L4,10C3.172,10 2.42,10.337 1.879,10.879C1.338,11.421 1,12.172 1,13L1,20C1,20.828 1.337,21.58 1.879,22.121C2.421,22.662 3.172,23 4,23L7,23C7.552,23 8,22.552 8,22C8,21.448 7.552,21 7,21Z" style="fill:rgb(255,0,0);fill-rule:nonzero;"/>
    </g>
</svg>
